<svg width="153" height="102" viewBox="0 0 153 102" fill="none" xmlns="http://www.w3.org/2000/svg">
<ellipse cx="52" cy="50.5" rx="52" ry="50.5" fill="#FBFF3E"/>
<path d="M17 101.348C17.3333 88.6817 22.4 64.3483 40 68.3483C44.6667 59.3483 57.6 46.7483 72 68.3483C71.3333 59.015 76.4 44.7484 102 62.3484C106.961 56.8363 115.887 53.1928 118.377 73.3484C119.044 70.015 129.4 64.3483 139 68.3483C148.6 72.3484 151.667 92.015 152 101.348H17Z" fill="url(#paint0_linear_6_32)"/>
<path d="M118.377 73.3484L119 89.3484C119.139 82.8365 118.899 77.5703 118.377 73.3484ZM118.377 73.3484C119.044 70.015 129.4 64.3483 139 68.3483C148.6 72.3484 151.667 92.015 152 101.348H17C17.3333 88.6817 22.4 64.3483 40 68.3483C44.6667 59.3483 57.6 46.7483 72 68.3483C71.3333 59.015 76.4 44.7484 102 62.3484C106.961 56.8363 115.887 53.1928 118.377 73.3484Z" stroke="#D9D9D9"/>
<defs>
<linearGradient id="paint0_linear_6_32" x1="125" y1="77.3484" x2="58" y2="77.3484" gradientUnits="userSpaceOnUse">
<stop stop-color="#D9D9D9"/>
<stop offset="0.74656" stop-color="white"/>
</linearGradient>
</defs>
</svg>
