<svg width="502" height="233" viewBox="0 0 502 233" fill="none" xmlns="http://www.w3.org/2000/svg">
<path d="M0 100H391C424.333 99.6667 481 105.298 481 80C481 52 494 -2 439 5C395 10.6 388.667 57.3333 391 80" stroke="#8E6CD6" stroke-width="7"/>
<path d="M90 83.8949H273.203C288.821 83.7837 315.372 85.6621 315.372 77.2237C315.372 67.884 321.464 49.8719 295.693 52.2068C275.077 54.0747 272.11 69.663 273.203 77.2237" stroke="#8E6CD6" stroke-width="7"/>
<path d="M-0.000244141 132.62H391C424.333 132.287 480.299 127.415 489 145C507 181.38 499 222 444 229C400 234.6 388.666 146.333 391 169" stroke="#8E6CD6" stroke-width="7"/>
</svg>
