<svg width="182" height="496" viewBox="0 0 182 496" fill="none" xmlns="http://www.w3.org/2000/svg">
<path d="M1 495C80.2265 418.456 181 277.91 181 174.672C166.083 97.4843 114.37 15.4726 15.9171 1" stroke="#8E6CD6"/>
<path d="M1 388C34.6847 339.424 95.5581 252.442 77.8285 177.132C70.515 146.067 35.4743 113.495 7.89486 122.533" stroke="#8E6CD6"/>
<path d="M1 347C37.0116 308.371 59.0187 241.648 40.0126 193.361C29.009 174.925 31.0097 171.413 10.0029 160" stroke="#8E6CD6"/>
<path d="M1 423C47.412 363.171 134.41 226.771 111.107 159.802C103.813 129.886 68.8574 69.4182 7 71.0317" stroke="#8E6CD6"/>
<path d="M1 463C58.4043 394.223 166.007 237.422 137.185 160.438C127.537 115.122 88.5789 26.9429 9.93662 36.7557" stroke="#8E6CD6"/>
</svg>
