<svg width="241" height="230" viewBox="0 0 241 230" fill="none" xmlns="http://www.w3.org/2000/svg">
<path d="M1 1C15.0396 67.2907 82.4951 205.698 240 229" stroke="#8E6CD6"/>
<path d="M18 1C38.9558 66.9794 112.694 201.55 240 212" stroke="#8E6CD6"/>
<path d="M186 1C191.097 22.5762 209.034 66.5829 240 70" stroke="#8E6CD6"/>
<path d="M151 1C159.401 30.3936 188.963 90.3448 240 95" stroke="#8E6CD6"/>
<path d="M116 1C127.705 38.5238 168.892 115.057 240 121" stroke="#8E6CD6"/>
<path d="M87 1C101.442 47.9048 152.262 143.571 240 151" stroke="#8E6CD6"/>
<path d="M62 1C78.8024 53.5333 137.926 160.68 240 169" stroke="#8E6CD6"/>
<path d="M37 1C58.3333 67.016 110.4 179.545 240 190" stroke="#8E6CD6"/>
</svg>
